<svg width="154" height="52" viewBox="0 0 154 52" fill="none" xmlns="http://www.w3.org/2000/svg">
<path d="M61.3696 16.2932L61.3696 48.8691" stroke="black" stroke-width="3" stroke-linecap="round"/>
<path d="M86.4291 14.6461V46.3069" stroke="black" stroke-width="3" stroke-linecap="round"/>
<path d="M36.1298 14.8291L35.9495 46.3069" stroke="black" stroke-width="3" stroke-linecap="round"/>
<path d="M35.7692 46.7878C44.5255 45.1092 47.668 45.2912 47.668 45.2912C53.2084 45.5965 56.2823 46.5252 60.8287 48.5518" stroke="black" stroke-width="3" stroke-linecap="round"/>
<path d="M61.317 48.8568C66.0137 46.1329 68.5786 45.3305 73.0489 44.9945C77.7143 44.8742 80.6622 45.1028 86.312 45.8598" stroke="black" stroke-width="3" stroke-linecap="round"/>
<path d="M84.3044 47.105C84.7827 48.4054 84.5827 48.9532 84.5827 48.9532C84.5827 48.9532 84.356 50.3491 83.3643 50.4168" stroke="black" stroke-width="2.11689" stroke-linecap="round"/>
<path d="M35.9495 15.0345C44.7058 13.3559 47.8483 13.5379 47.8483 13.5379C53.3887 13.8432 56.4626 14.7719 61.009 16.7986" stroke="black" stroke-width="3" stroke-linecap="round"/>
<path d="M39.1946 50.1039L83.3552 50.4567" stroke="black" stroke-width="3" stroke-linecap="round"/>
<path d="M61.1367 17.4563C65.8334 14.7324 68.3983 13.9301 72.8686 13.594C77.534 13.4738 80.4819 13.7023 86.1318 14.4593" stroke="black" stroke-width="3" stroke-linecap="round"/>
<path d="M38.5083 46.7522C38.03 48.0526 38.23 48.6004 38.23 48.6004C38.23 48.6004 38.4567 49.9962 39.4484 50.064" stroke="black" stroke-width="3" stroke-linecap="round"/>
<path d="M18.36 31.205C15.45 31.205 14.025 30.47 14.085 29C14.085 27.62 15.48 26.93 18.27 26.93C18.93 26.93 19.56 27.005 20.16 27.155C21.15 26.165 21.645 24.665 21.645 22.655C21.645 19.175 19.32 17.435 14.67 17.435C12.24 17.435 9.93 17.96 7.74 19.01C6.93 19.4 6.195 19.76 5.535 20.09C4.905 20.42 4.32 20.585 3.78 20.585C3.24 20.585 2.97 20.42 2.97 20.09C2.97 19.7 3.27 19.13 3.87 18.38C4.47 17.6 5.31 16.82 6.39 16.04C9.15 14.12 12.285 13.145 15.795 13.115C20.385 13.115 23.76 14.03 25.92 15.86C27.78 17.39 28.71 19.475 28.71 22.115C28.71 25.175 27.21 27.515 24.21 29.135C27.09 30.785 28.8 32.81 29.34 35.21C29.52 36.05 29.61 37.16 29.61 38.54C29.61 39.92 29.235 41.225 28.485 42.455C27.735 43.685 26.73 44.72 25.47 45.56C22.95 47.18 19.725 47.99 15.795 47.99C13.005 47.99 9.9 47.36 6.48 46.1C4.2 45.26 2.52 44.255 1.44 43.085C0.9 42.515 0.63 41.945 0.63 41.375C0.66 40.805 0.945 40.52 1.485 40.52C2.055 40.52 3.12 40.715 4.68 41.105V41.06C4.68 38.72 4.95 36.32 5.49 33.86C6.42 29.57 7.5 26.21 8.73 23.78C10.05 21.08 11.415 19.73 12.825 19.73C13.215 19.73 13.41 20.405 13.41 21.755C13.41 23.105 13.275 24.485 13.005 25.895C12.765 27.305 12.495 28.7 12.195 30.08C11.925 31.43 11.655 32.66 11.385 33.77C11.145 34.88 11.025 35.675 11.025 36.155L10.575 42.95C12.345 43.43 13.845 43.67 15.075 43.67C16.305 43.67 17.415 43.46 18.405 43.04C20.895 41.99 22.14 40.16 22.14 37.55C22.14 35.99 21.99 34.7 21.69 33.68C21.39 32.66 20.85 31.76 20.07 30.98C19.38 31.13 18.81 31.205 18.36 31.205Z" fill="black"/>
<path d="M105.49 37.145C106.3 40.355 107.665 41.96 109.585 41.96C110.515 41.96 111.355 41.675 112.105 41.105C112.855 40.535 113.53 39.92 114.13 39.26C114.73 38.57 115.255 37.94 115.705 37.37C116.155 36.8 116.575 36.515 116.965 36.515C117.355 36.515 117.55 37.025 117.55 38.045C117.55 40.175 116.56 42.23 114.58 44.21C112.6 46.19 110.38 47.165 107.92 47.135C105.49 47.135 103.315 44.99 101.395 40.7C100.855 39.5 100.345 38.285 99.865 37.055L99.55 43.22C99.55 43.79 99.52 44.36 99.46 44.93C99.4 45.47 99.145 45.92 98.695 46.28C97.525 47.21 96.34 47.675 95.14 47.675C93.73 47.675 93.025 46.22 93.025 43.31C93.025 39.11 93.52 34.715 94.51 30.125C95.5 25.535 96.46 22.085 97.39 19.775C98.35 17.435 99.085 15.875 99.595 15.095C100.135 14.315 100.555 13.835 100.855 13.655C101.155 13.475 101.485 13.385 101.845 13.385C102.235 13.385 102.64 13.58 103.06 13.97C103.48 14.33 103.93 14.9 104.41 15.68C104.89 16.43 105.13 17.18 105.13 17.93C105.16 18.65 105.04 19.37 104.77 20.09C104.53 20.78 104.2 21.47 103.78 22.16C103.36 22.82 102.895 23.51 102.385 24.23C101.875 24.92 101.365 25.67 100.855 26.48L100.405 30.26C101.455 28.07 103 26.6 105.04 25.85C105.76 25.58 106.6 25.445 107.56 25.445C109.48 25.445 110.95 25.91 111.97 26.84C112.99 27.74 113.5 29.075 113.5 30.845C113.5 32.615 112.615 34.115 110.845 35.345C109.075 36.575 107.29 37.175 105.49 37.145ZM107.2 31.88C107.2 30.8 106.585 30.26 105.355 30.26C104.125 30.26 102.79 31.445 101.35 33.815C100.93 34.505 100.57 35.21 100.27 35.93C103.39 35.75 105.52 34.91 106.66 33.41C107.02 32.93 107.2 32.42 107.2 31.88ZM120.689 47.135C117.689 47.135 116.189 44.33 116.189 38.72C116.189 35.66 116.564 32.885 117.314 30.395C118.484 26.555 119.804 24.635 121.274 24.635C122.144 24.635 122.834 25.22 123.344 26.39C123.764 27.29 123.959 28.175 123.929 29.045C123.929 30.245 123.569 32.36 122.849 35.39C122.159 38.03 121.814 39.665 121.814 40.295C121.814 40.925 121.964 41.36 122.264 41.6C122.594 41.84 122.969 41.96 123.389 41.96C123.839 41.96 124.394 41.675 125.054 41.105C125.714 40.535 126.374 39.92 127.034 39.26C127.694 38.57 128.294 37.94 128.834 37.37C129.404 36.8 129.794 36.515 130.004 36.515C130.424 36.515 130.634 37.025 130.634 38.045C130.634 40.145 129.569 42.2 127.439 44.21C125.339 46.19 123.089 47.165 120.689 47.135ZM122.534 20.99C121.724 19.79 121.319 18.5 121.319 17.12C121.319 15.74 121.529 14.6 121.949 13.7C122.399 12.77 122.819 12.095 123.209 11.675C123.599 11.225 124.049 11 124.559 11C125.399 11 126.164 11.63 126.854 12.89C127.544 14.12 127.889 15.155 127.889 15.995C127.889 17.555 127.334 18.785 126.224 19.685C125.144 20.555 123.914 20.99 122.534 20.99ZM138.87 42.095C141.21 42.095 143.475 41.165 145.665 39.305C146.475 38.615 147.135 37.985 147.645 37.415C148.155 36.815 148.545 36.515 148.815 36.515C149.235 36.515 149.445 36.935 149.445 37.775C149.445 38.615 149.22 39.56 148.77 40.61C148.32 41.63 147.57 42.635 146.52 43.625C143.94 46.055 140.4 47.27 135.9 47.27C132.33 47.27 129.9 45.98 128.61 43.4C128.16 42.5 127.935 41.21 127.935 39.53C127.935 37.85 128.265 36.11 128.925 34.31C129.585 32.48 130.455 30.905 131.535 29.585C132.645 28.265 133.92 27.245 135.36 26.525C136.8 25.775 138.33 25.4 139.95 25.4C141.6 25.4 142.86 25.805 143.73 26.615C144.63 27.425 145.08 28.475 145.08 29.765C145.08 31.055 144.75 32.12 144.09 32.96C143.46 33.77 142.635 34.46 141.615 35.03C140.595 35.57 139.455 36.065 138.195 36.515C136.965 36.935 135.75 37.415 134.55 37.955V39.08C134.58 40.16 135.03 40.925 135.9 41.375C136.77 41.825 137.76 42.065 138.87 42.095ZM138.105 29.405C136.545 29.405 135.465 31.22 134.865 34.85C135.495 34.43 136.08 34.055 136.62 33.725C137.19 33.395 137.685 33.08 138.105 32.78C139.005 32.12 139.47 31.37 139.5 30.53C139.5 29.78 139.035 29.405 138.105 29.405Z" fill="black"/>
</svg>
