<svg width="118" height="90" viewBox="0 0 118 90" fill="none" xmlns="http://www.w3.org/2000/svg">
<path d="M59.8308 9.74004L59.8308 83.6453" stroke="black" stroke-width="4.8026" stroke-linecap="round"/>
<path d="M115.461 6.00325V77.8325" stroke="black" stroke-width="4.8026" stroke-linecap="round"/>
<path d="M3.80043 6.41844L3.40021 77.8325" stroke="black" stroke-width="4.8026" stroke-linecap="round"/>
<path d="M3 78.9234C22.4383 75.1152 29.4143 75.5281 29.4143 75.5281C41.7137 76.2207 48.5374 78.3277 58.6301 82.9256" stroke="black" stroke-width="4.8026" stroke-linecap="round"/>
<path d="M59.714 83.6174C70.1404 77.4377 75.8341 75.6173 85.7578 74.855C96.1148 74.5821 102.659 75.1006 115.201 76.818" stroke="black" stroke-width="4.8026" stroke-linecap="round"/>
<path d="M110.744 79.6431C111.806 82.5933 111.362 83.8361 111.362 83.8361C111.362 83.8361 110.859 87.0029 108.657 87.1566" stroke="black" stroke-width="4.8026" stroke-linecap="round"/>
<path d="M3.40022 6.88439C22.8385 3.07614 29.8145 3.48909 29.8145 3.48909C42.1139 4.18169 48.9376 6.2887 59.0304 10.8866" stroke="black" stroke-width="4.8026" stroke-linecap="round"/>
<path d="M10.6041 86.4468L108.637 87.2472" stroke="black" stroke-width="4.8026" stroke-linecap="round"/>
<path d="M59.3138 12.3788C69.7402 6.19914 75.4339 4.37876 85.3576 3.61641C95.7146 3.34352 102.259 3.86203 114.801 5.57943" stroke="black" stroke-width="4.8026" stroke-linecap="round"/>
<path d="M9.08046 78.8427C8.01869 81.7929 8.46275 83.0356 8.46275 83.0356C8.46275 83.0356 8.96605 86.2025 11.1675 86.3562" stroke="black" stroke-width="4.8026" stroke-linecap="round"/>
</svg>
